<mxfile host="Electron" modified="2023-06-07T06:14:07.230Z" agent="Mozilla/5.0 (Windows NT 10.0; Win64; x64) AppleWebKit/537.36 (KHTML, like Gecko) draw.io/21.2.8 Chrome/112.0.5615.165 Electron/24.2.0 Safari/537.36" etag="bDvRj4xzV-8JmRLwHq1J" version="21.2.8" type="device">
  <diagram name="페이지-1" id="MNSyX0nAyqIWLE5m86CJ">
    <mxGraphModel dx="915" dy="690" grid="1" gridSize="10" guides="1" tooltips="1" connect="1" arrows="1" fold="1" page="1" pageScale="1" pageWidth="827" pageHeight="1169" math="0" shadow="0">
      <root>
        <mxCell id="0" />
        <mxCell id="1" parent="0" />
        <mxCell id="owrfFXBdQkXe82NQp9ih-38" value="" style="whiteSpace=wrap;html=1;aspect=fixed;" vertex="1" parent="1">
          <mxGeometry x="120" y="240" width="610" height="610" as="geometry" />
        </mxCell>
        <mxCell id="owrfFXBdQkXe82NQp9ih-4" value="사용자" style="shape=umlActor;verticalLabelPosition=bottom;verticalAlign=top;html=1;outlineConnect=0;" vertex="1" parent="1">
          <mxGeometry x="60" y="450" width="30" height="60" as="geometry" />
        </mxCell>
        <mxCell id="owrfFXBdQkXe82NQp9ih-5" value="관리자" style="shape=umlActor;verticalLabelPosition=bottom;verticalAlign=top;html=1;outlineConnect=0;" vertex="1" parent="1">
          <mxGeometry x="760" y="450" width="30" height="60" as="geometry" />
        </mxCell>
        <mxCell id="owrfFXBdQkXe82NQp9ih-6" value="뮤지션정보보기" style="ellipse;whiteSpace=wrap;html=1;" vertex="1" parent="1">
          <mxGeometry x="150" y="280" width="100" height="50" as="geometry" />
        </mxCell>
        <mxCell id="owrfFXBdQkXe82NQp9ih-7" value="공연정보보기" style="ellipse;whiteSpace=wrap;html=1;" vertex="1" parent="1">
          <mxGeometry x="150" y="350" width="100" height="50" as="geometry" />
        </mxCell>
        <mxCell id="owrfFXBdQkXe82NQp9ih-8" value="내정보수정하기" style="ellipse;whiteSpace=wrap;html=1;" vertex="1" parent="1">
          <mxGeometry x="150" y="420" width="100" height="50" as="geometry" />
        </mxCell>
        <mxCell id="owrfFXBdQkXe82NQp9ih-10" value="전체검색하기" style="ellipse;whiteSpace=wrap;html=1;" vertex="1" parent="1">
          <mxGeometry x="150" y="490" width="100" height="50" as="geometry" />
        </mxCell>
        <mxCell id="owrfFXBdQkXe82NQp9ih-11" value="내라이브러리&lt;br&gt;관리하기" style="ellipse;whiteSpace=wrap;html=1;" vertex="1" parent="1">
          <mxGeometry x="150" y="560" width="100" height="50" as="geometry" />
        </mxCell>
        <mxCell id="owrfFXBdQkXe82NQp9ih-12" value="공지사항확인" style="ellipse;whiteSpace=wrap;html=1;" vertex="1" parent="1">
          <mxGeometry x="150" y="630" width="100" height="50" as="geometry" />
        </mxCell>
        <mxCell id="owrfFXBdQkXe82NQp9ih-13" value="FAQ확인" style="ellipse;whiteSpace=wrap;html=1;" vertex="1" parent="1">
          <mxGeometry x="150" y="700" width="100" height="50" as="geometry" />
        </mxCell>
        <mxCell id="owrfFXBdQkXe82NQp9ih-14" value="뮤지션&lt;br&gt;추가&amp;amp;관리하기" style="ellipse;whiteSpace=wrap;html=1;" vertex="1" parent="1">
          <mxGeometry x="590" y="280" width="100" height="50" as="geometry" />
        </mxCell>
        <mxCell id="owrfFXBdQkXe82NQp9ih-15" value="공연&lt;br&gt;추가&amp;amp;관리하기" style="ellipse;whiteSpace=wrap;html=1;" vertex="1" parent="1">
          <mxGeometry x="590" y="350" width="100" height="50" as="geometry" />
        </mxCell>
        <mxCell id="owrfFXBdQkXe82NQp9ih-16" value="회원&lt;br&gt;관리하기" style="ellipse;whiteSpace=wrap;html=1;" vertex="1" parent="1">
          <mxGeometry x="590" y="420" width="100" height="50" as="geometry" />
        </mxCell>
        <mxCell id="owrfFXBdQkXe82NQp9ih-17" value="검색데이터&lt;br&gt;관리하기" style="ellipse;whiteSpace=wrap;html=1;" vertex="1" parent="1">
          <mxGeometry x="590" y="490" width="100" height="50" as="geometry" />
        </mxCell>
        <mxCell id="owrfFXBdQkXe82NQp9ih-18" value="게시판&lt;br&gt;관리하기" style="ellipse;whiteSpace=wrap;html=1;" vertex="1" parent="1">
          <mxGeometry x="590" y="560" width="100" height="50" as="geometry" />
        </mxCell>
        <mxCell id="owrfFXBdQkXe82NQp9ih-19" value="" style="endArrow=classic;html=1;rounded=0;exitX=1;exitY=0.5;exitDx=0;exitDy=0;entryX=0;entryY=0.5;entryDx=0;entryDy=0;" edge="1" parent="1" source="owrfFXBdQkXe82NQp9ih-6" target="owrfFXBdQkXe82NQp9ih-14">
          <mxGeometry width="50" height="50" relative="1" as="geometry">
            <mxPoint x="350" y="630" as="sourcePoint" />
            <mxPoint x="400" y="580" as="targetPoint" />
          </mxGeometry>
        </mxCell>
        <mxCell id="owrfFXBdQkXe82NQp9ih-22" value="" style="endArrow=classic;html=1;rounded=0;exitX=1;exitY=0.5;exitDx=0;exitDy=0;entryX=0;entryY=0.5;entryDx=0;entryDy=0;" edge="1" parent="1" source="owrfFXBdQkXe82NQp9ih-7" target="owrfFXBdQkXe82NQp9ih-15">
          <mxGeometry width="50" height="50" relative="1" as="geometry">
            <mxPoint x="350" y="630" as="sourcePoint" />
            <mxPoint x="400" y="580" as="targetPoint" />
          </mxGeometry>
        </mxCell>
        <mxCell id="owrfFXBdQkXe82NQp9ih-23" value="" style="endArrow=classic;html=1;rounded=0;exitX=1;exitY=0.5;exitDx=0;exitDy=0;entryX=0;entryY=0.5;entryDx=0;entryDy=0;" edge="1" parent="1" source="owrfFXBdQkXe82NQp9ih-8" target="owrfFXBdQkXe82NQp9ih-16">
          <mxGeometry width="50" height="50" relative="1" as="geometry">
            <mxPoint x="350" y="630" as="sourcePoint" />
            <mxPoint x="400" y="580" as="targetPoint" />
          </mxGeometry>
        </mxCell>
        <mxCell id="owrfFXBdQkXe82NQp9ih-24" value="" style="endArrow=classic;html=1;rounded=0;exitX=1;exitY=0.5;exitDx=0;exitDy=0;entryX=0;entryY=0.5;entryDx=0;entryDy=0;" edge="1" parent="1" source="owrfFXBdQkXe82NQp9ih-10" target="owrfFXBdQkXe82NQp9ih-17">
          <mxGeometry width="50" height="50" relative="1" as="geometry">
            <mxPoint x="350" y="630" as="sourcePoint" />
            <mxPoint x="400" y="580" as="targetPoint" />
          </mxGeometry>
        </mxCell>
        <mxCell id="owrfFXBdQkXe82NQp9ih-26" value="" style="curved=1;endArrow=classic;html=1;rounded=0;exitX=1;exitY=0.5;exitDx=0;exitDy=0;entryX=0;entryY=0.5;entryDx=0;entryDy=0;" edge="1" parent="1" source="owrfFXBdQkXe82NQp9ih-11" target="owrfFXBdQkXe82NQp9ih-16">
          <mxGeometry width="50" height="50" relative="1" as="geometry">
            <mxPoint x="350" y="630" as="sourcePoint" />
            <mxPoint x="400" y="580" as="targetPoint" />
            <Array as="points">
              <mxPoint x="400" y="630" />
              <mxPoint x="430" y="430" />
            </Array>
          </mxGeometry>
        </mxCell>
        <mxCell id="owrfFXBdQkXe82NQp9ih-27" value="" style="curved=1;endArrow=classic;html=1;rounded=0;exitX=1;exitY=0.5;exitDx=0;exitDy=0;entryX=0;entryY=0.5;entryDx=0;entryDy=0;" edge="1" parent="1" source="owrfFXBdQkXe82NQp9ih-12" target="owrfFXBdQkXe82NQp9ih-18">
          <mxGeometry width="50" height="50" relative="1" as="geometry">
            <mxPoint x="350" y="630" as="sourcePoint" />
            <mxPoint x="400" y="580" as="targetPoint" />
            <Array as="points">
              <mxPoint x="450" y="640" />
              <mxPoint x="350" y="580" />
            </Array>
          </mxGeometry>
        </mxCell>
        <mxCell id="owrfFXBdQkXe82NQp9ih-28" value="" style="curved=1;endArrow=classic;html=1;rounded=0;exitX=1;exitY=0.5;exitDx=0;exitDy=0;entryX=0;entryY=0.5;entryDx=0;entryDy=0;" edge="1" parent="1" source="owrfFXBdQkXe82NQp9ih-13" target="owrfFXBdQkXe82NQp9ih-18">
          <mxGeometry width="50" height="50" relative="1" as="geometry">
            <mxPoint x="350" y="630" as="sourcePoint" />
            <mxPoint x="400" y="580" as="targetPoint" />
            <Array as="points">
              <mxPoint x="550" y="670" />
              <mxPoint x="380" y="550" />
            </Array>
          </mxGeometry>
        </mxCell>
        <mxCell id="owrfFXBdQkXe82NQp9ih-29" value="질문등록하기" style="ellipse;whiteSpace=wrap;html=1;" vertex="1" parent="1">
          <mxGeometry x="150" y="770" width="100" height="50" as="geometry" />
        </mxCell>
        <mxCell id="owrfFXBdQkXe82NQp9ih-30" value="답변등록 및&lt;br&gt;관리하기" style="ellipse;whiteSpace=wrap;html=1;" vertex="1" parent="1">
          <mxGeometry x="590" y="630" width="100" height="50" as="geometry" />
        </mxCell>
        <mxCell id="owrfFXBdQkXe82NQp9ih-37" value="" style="endArrow=classic;html=1;rounded=0;exitX=1;exitY=0.5;exitDx=0;exitDy=0;entryX=-0.008;entryY=0.623;entryDx=0;entryDy=0;entryPerimeter=0;" edge="1" parent="1" source="owrfFXBdQkXe82NQp9ih-29" target="owrfFXBdQkXe82NQp9ih-30">
          <mxGeometry width="50" height="50" relative="1" as="geometry">
            <mxPoint x="350" y="630" as="sourcePoint" />
            <mxPoint x="400" y="580" as="targetPoint" />
          </mxGeometry>
        </mxCell>
        <mxCell id="owrfFXBdQkXe82NQp9ih-39" value="" style="endArrow=none;html=1;rounded=0;entryX=0;entryY=0.116;entryDx=0;entryDy=0;entryPerimeter=0;" edge="1" parent="1" target="owrfFXBdQkXe82NQp9ih-38">
          <mxGeometry width="50" height="50" relative="1" as="geometry">
            <mxPoint x="110" y="310" as="sourcePoint" />
            <mxPoint x="460" y="530" as="targetPoint" />
          </mxGeometry>
        </mxCell>
        <mxCell id="owrfFXBdQkXe82NQp9ih-40" value="" style="endArrow=none;html=1;rounded=0;" edge="1" parent="1">
          <mxGeometry width="50" height="50" relative="1" as="geometry">
            <mxPoint x="110" y="480" as="sourcePoint" />
            <mxPoint x="110" y="310" as="targetPoint" />
          </mxGeometry>
        </mxCell>
        <mxCell id="owrfFXBdQkXe82NQp9ih-42" value="" style="endArrow=none;html=1;rounded=0;" edge="1" parent="1" source="owrfFXBdQkXe82NQp9ih-4">
          <mxGeometry width="50" height="50" relative="1" as="geometry">
            <mxPoint x="410" y="580" as="sourcePoint" />
            <mxPoint x="110" y="480" as="targetPoint" />
          </mxGeometry>
        </mxCell>
        <mxCell id="owrfFXBdQkXe82NQp9ih-45" value="" style="endArrow=none;html=1;rounded=0;" edge="1" parent="1" target="owrfFXBdQkXe82NQp9ih-5">
          <mxGeometry width="50" height="50" relative="1" as="geometry">
            <mxPoint x="740" y="480" as="sourcePoint" />
            <mxPoint x="460" y="530" as="targetPoint" />
          </mxGeometry>
        </mxCell>
        <mxCell id="owrfFXBdQkXe82NQp9ih-46" value="" style="endArrow=none;html=1;rounded=0;" edge="1" parent="1">
          <mxGeometry width="50" height="50" relative="1" as="geometry">
            <mxPoint x="740" y="480" as="sourcePoint" />
            <mxPoint x="740" y="300" as="targetPoint" />
          </mxGeometry>
        </mxCell>
        <mxCell id="owrfFXBdQkXe82NQp9ih-47" value="" style="endArrow=none;html=1;rounded=0;exitX=1.001;exitY=0.104;exitDx=0;exitDy=0;exitPerimeter=0;" edge="1" parent="1" source="owrfFXBdQkXe82NQp9ih-38">
          <mxGeometry width="50" height="50" relative="1" as="geometry">
            <mxPoint x="410" y="580" as="sourcePoint" />
            <mxPoint x="740" y="300" as="targetPoint" />
          </mxGeometry>
        </mxCell>
      </root>
    </mxGraphModel>
  </diagram>
</mxfile>
